HIERARCHY
ROOT simHips
{
  OFFSET 2.03452 97.5883 -7.47181
  CHANNELS 6 Xposition Yposition Zposition Zrotation Xrotation Yrotation
  JOINT simSpine
  {
    OFFSET -0.000355721 21.3001 -0.016921
    CHANNELS 3 Zrotation Xrotation Yrotation
    JOINT simLeftArm
    {
      OFFSET 13.5181 21.3012 0
      CHANNELS 3 Zrotation Xrotation Yrotation
      JOINT simLeftForeArm
      {
        OFFSET 24.5783 0 0
        CHANNELS 3 Zrotation Xrotation Yrotation
        JOINT simLeftHand
        {
          OFFSET 24.5783 0 0
          CHANNELS 3 Zrotation Xrotation Yrotation
          End Site
          {
            OFFSET 7.32568 1.52588e-005 0.0169305
          }
        }
      }
    }
    JOINT simHead
    {
      OFFSET 0 27.4458 -0.00489235
      CHANNELS 3 Zrotation Xrotation Yrotation
      End Site
      {
        OFFSET 0 0 0
      }
    }
    JOINT simRightArm
    {
      OFFSET -13.5174 21.3012 0
      CHANNELS 3 Zrotation Xrotation Yrotation
      JOINT simRightForeArm
      {
        OFFSET -24.5783 0 0
        CHANNELS 3 Zrotation Xrotation Yrotation
        JOINT simRightHand
        {
          OFFSET -24.5783 0 0
          CHANNELS 3 Zrotation Xrotation Yrotation
          End Site
          {
            OFFSET -7.32568 1.52588e-005 0.0169305
          }
        }
      }
    }
  }
  JOINT simRightUpLeg
  {
    OFFSET -8.44614 -9.41038 0.835684
    CHANNELS 3 Zrotation Xrotation Yrotation
    JOINT simRightLeg
    {
      OFFSET 0 -40.9639 0
      CHANNELS 3 Zrotation Xrotation Yrotation
      JOINT simRightFoot
      {
        OFFSET 0 -40.9639 0
        CHANNELS 3 Zrotation Xrotation Yrotation
        End Site
        {
          OFFSET 0.50614 -9.67405 14.6709
        }
      }
    }
  }
  JOINT simLeftUpLeg
  {
    OFFSET 8.44614 -9.41038 0.835684
    CHANNELS 3 Zrotation Xrotation Yrotation
    JOINT simLeftLeg
    {
      OFFSET 0 -40.9639 0
      CHANNELS 3 Zrotation Xrotation Yrotation
      JOINT simLeftFoot
      {
        OFFSET 0 -40.9639 0
        CHANNELS 3 Zrotation Xrotation Yrotation
        End Site
        {
          OFFSET -0.50614 -9.67405 14.6709
        }
      }
    }
  }
}
MOTION
Frames:	23
Frame Time:	0.0333333
-2.14642 97.9398 -8.33723 1.98015 -4.1909 1.96825 -2.63493 -0.0700794 1.64731 -50.338 57.9814 -17.9581 -0.115003 -2.37157e-006 -75.7152 43.2424 31.7398 -23.3173 0.831369 22.1447 2.66923 66.5722 61.0046 14.7396 -4.01899e-005 -1.71288e-006 5.39147 3.33835 -1.58517 10.8384 -4.4592 -8.85229 -8.38886 -2.56877 27.7161 -6.6045 4.94579 -13.852 -5.20386 3.23864 -7.30397 13.5974 1.90799 23.765 -2.63877 -3.63903 -11.4669 1.64418 
-2.1357 97.8778 -8.46369 1.95961 -4.14416 2.13602 -2.7791 -0.136683 1.23334 -45.2826 59.6526 -22.5834 -0.113559 -1.66195e-006 -80.0428 45.4534 34.946 -23.9696 0.985627 22.222 2.99661 66.4939 61.1852 15.0338 -4.01936e-005 -1.71322e-006 5.27029 3.68509 -1.59861 11.0106 -4.52722 -9.13751 -8.68153 -2.59536 28.0673 -6.40327 4.92699 -13.9581 -5.23956 3.27859 -7.70195 13.5503 1.97379 24.2309 -2.69442 -3.62262 -11.5892 1.56091 
-2.08398 97.7744 -8.57824 1.97731 -4.09974 2.42682 -2.95064 -0.18136 0.792814 -39.3587 61.3851 -28.5707 -0.112091 -1.14763e-006 -83.1425 48.1575 37.0025 -24.4022 0.988215 22.2675 3.56985 66.3989 61.3704 15.2859 -4.01966e-005 -1.7135e-006 5.16767 3.96645 -1.61061 11.1121 -4.74979 -9.50104 -9.10831 -2.54068 28.6675 -6.15801 4.90997 -14.2103 -5.33785 3.15378 -8.24651 13.2286 2.20004 24.9375 -2.63716 -3.67854 -11.8356 1.45304 
-2.00274 97.6633 -8.65567 2.0217 -4.07896 2.75695 -3.15818 -0.211014 0.393459 -32.8318 62.964 -35.7342 -0.110598 -8.50815e-007 -84.9215 51.545 37.5381 -24.831 0.909532 22.3172 4.26186 66.3352 61.5465 15.4326 -4.01984e-005 -1.71366e-006 5.1088 4.13199 -1.60852 11.1662 -5.06169 -9.81854 -9.55106 -2.4143 29.3122 -5.98209 4.90468 -14.5091 -5.4182 2.91977 -8.75673 12.7798 2.49988 25.6522 -2.52727 -3.76992 -12.1149 1.33912 
-1.92877 97.579 -8.6911 2.05978 -4.06255 2.97508 -3.40388 -0.232895 0.0933289 -26.1748 64.2313 -43.555 -0.109083 -7.5813e-007 -85.476 55.5664 36.5451 -25.4048 0.820577 22.3795 4.93404 66.3406 61.6908 15.4422 -4.01984e-005 -1.71366e-006 5.1075 4.16699 -1.56572 11.2358 -5.3229 -10.0416 -9.86962 -2.29067 29.7953 -5.89073 4.90641 -14.7414 -5.44108 2.71608 -9.10757 12.4298 2.73634 26.1699 -2.4229 -3.84867 -12.3386 1.25455 
-1.8944 97.5376 -8.70323 2.0642 -4.02188 2.95048 -3.68043 -0.252137 -0.0778073 -20.0155 65.1293 -51.2439 -0.107544 -8.25132e-007 -85.0752 59.9161 34.4295 -26.1436 0.765809 22.4419 5.47957 66.4316 61.7685 15.3202 -4.01967e-005 -1.71351e-006 5.16391 4.08984 -1.43738 11.3815 -5.41734 -10.2118 -9.97397 -2.25839 30.0341 -5.81234 4.90208 -14.8418 -5.42629 2.6586 -9.29566 12.3418 2.81945 26.4325 -2.34807 -3.88418 -12.4649 1.23768 
-1.89714 97.5245 -8.71134 2.04111 -3.96111 2.68464 -3.97168 -0.269691 -0.125686 -14.9527 65.702 -57.9763 -0.105982 -9.88921e-007 -84.0944 64.1543 31.8576 -26.9308 0.751386 22.4832 5.84882 66.6026 61.7459 15.1017 -4.01937e-005 -1.71323e-006 5.26531 3.93595 -1.1739 11.6209 -5.36431 -10.3827 -9.88037 -2.31752 30.1171 -5.69886 4.88459 -14.8441 -5.40336 2.74333 -9.36985 12.5173 2.76539 26.5247 -2.31134 -3.87574 -12.5283 1.2991 
-1.90818 97.5168 -8.72431 2.02148 -3.91409 2.29842 -4.25548 -0.282227 -0.0853547 -11.3405 66.0474 -63.1748 -0.104397 -1.18448e-006 -82.9211 67.879 29.4856 -27.5738 0.752636 22.487 6.05422 66.8281 61.6082 14.8368 -4.01899e-005 -1.71288e-006 5.39162 3.74002 -0.747903 11.9105 -5.28564 -10.5555 -9.6882 -2.38254 30.1799 -5.57644 4.85512 -14.8235 -5.36707 2.87361 -9.39386 12.8426 2.66484 26.581 -2.32131 -3.83864 -12.5813 1.41029 
-1.90989 97.5024 -8.74148 2.02946 -3.89666 1.90884 -4.50993 -0.285495 -0.00551804 -9.18895 66.2573 -66.6671 -0.102789 -1.36069e-006 -81.8613 70.8261 27.7269 -27.9036 0.734152 22.4518 6.15476 67.0762 61.3771 14.5692 -4.01861e-005 -1.71251e-006 5.5192 3.52859 -0.178111 12.1658 -5.27091 -10.7176 -9.47914 -2.38872 30.2949 -5.50415 4.82333 -14.8275 -5.28641 2.97075 -9.38806 13.2118 2.58282 26.6466 -2.37119 -3.79267 -12.6447 1.52131 
-1.9134 97.4821 -8.75873 2.06369 -3.8905 1.55505 -4.71846 -0.278538 0.0681138 -8.20891 66.3825 -68.669 -0.10116 -1.48947e-006 -81.0851 72.881 26.6669 -27.8695 0.670025 22.3965 6.2251 67.3181 61.1108 14.3225 -4.01829e-005 -1.7122e-006 5.6263 3.3242 0.466097 12.3056 -5.30233 -10.8809 -9.26014 -2.35602 30.4581 -5.51075 4.8016 -14.8568 -5.15048 3.02712 -9.38561 13.5675 2.5351 26.7269 -2.4234 -3.76202 -12.7103 1.5928 
-1.94073 97.4607 -8.77431 2.10121 -3.8742 1.23173 -4.87351 -0.266571 0.104148 -7.95125 66.4379 -69.6432 -0.0995079 -1.56662e-006 -80.6193 74.0605 26.1317 -27.5783 0.554609 22.3587 6.32178 67.5354 60.8858 14.0967 -4.01808e-005 -1.71199e-006 5.69655 3.15182 1.08394 12.2961 -5.30442 -11.0551 -9.02233 -2.34867 30.63 -5.55668 4.79194 -14.8949 -4.99379 3.0838 -9.39299 13.871 2.49497 26.7992 -2.42723 -3.76445 -12.7652 1.61816 
-1.99712 97.4416 -8.78918 2.1143 -3.84718 0.955512 -4.9774 -0.2591 0.0885722 -7.96978 66.4213 -70.1086 -0.0978346 -1.60485e-006 -80.3882 74.5013 25.8412 -27.2532 0.402132 22.3816 6.46147 67.7216 60.7667 13.8746 -4.01801e-005 -1.71192e-006 5.72079 3.03916 1.57751 12.1694 -5.23552 -11.22 -8.81372 -2.3963 30.7696 -5.56961 4.77967 -14.9271 -4.87112 3.17691 -9.42607 14.0852 2.44415 26.8791 -2.36997 -3.79725 -12.8084 1.61526 
-2.06104 97.4236 -8.80445 2.09427 -3.8217 0.787683 -5.04171 -0.264414 0.021961 -7.94836 66.3299 -70.4798 -0.0961398 -1.624e-006 -80.2724 74.4342 25.5618 -27.1366 0.239515 22.4945 6.61991 67.8813 60.7811 13.6335 -4.01808e-005 -1.71199e-006 5.69868 3.00998 1.88662 12.0051 -5.13782 -11.3472 -8.72078 -2.45431 30.874 -5.52018 4.74664 -14.9583 -4.82358 3.29181 -9.48636 14.1896 2.40272 26.982 -2.30005 -3.84286 -12.8504 1.59938 
-2.10299 97.4021 -8.81998 2.06323 -3.80443 0.787232 -5.08516 -0.284549 -0.0854716 -7.75174 66.168 -70.9848 -0.0944238 -1.64192e-006 -80.164 74.1283 25.1913 -27.3816 0.0972262 22.6947 6.74902 68.0244 60.91 13.3595 -4.01826e-005 -1.71217e-006 5.63827 3.07538 2.0062 11.8887 -5.09935 -11.4268 -8.77611 -2.44233 30.9756 -5.45945 4.69052 -15.0093 -4.86699 3.36673 -9.58826 14.1966 2.424 27.125 -2.2898 -3.88564 -12.9002 1.56822 
-2.11662 97.3726 -8.83545 2.0537 -3.79268 0.93772 -5.12866 -0.31301 -0.218221 -7.39051 65.9482 -71.6749 -0.092687 -1.6688e-006 -80.0013 73.8226 24.7553 -27.9883 0.000107361 22.9431 6.80265 68.1549 61.0994 13.061 -4.01851e-005 -1.71242e-006 5.55351 3.22687 1.98112 11.8688 -5.15559 -11.493 -8.89912 -2.33699 31.1287 -5.47484 4.63283 -15.0975 -4.98106 3.36286 -9.73595 14.1387 2.51894 27.3116 -2.34769 -3.9212 -12.9612 1.51115 
-2.12438 97.3359 -8.85238 2.07598 -3.77938 1.14544 -5.18876 -0.337891 -0.35859 -6.94391 65.6947 -72.4929 -0.0909295 -1.70684e-006 -79.771 73.6722 24.3467 -28.8121 -0.0412373 23.1772 6.76008 68.2634 61.2849 12.7706 -4.01878e-005 -1.71268e-006 5.46143 3.43337 1.88246 11.9385 -5.25022 -11.5819 -8.96276 -2.20005 31.3423 -5.607 4.60254 -15.2134 -5.10867 3.30913 -9.90499 14.028 2.62055 27.5176 -2.38392 -3.95486 -13.0252 1.42943 
-2.15236 97.3002 -8.87306 2.11066 -3.75845 1.31519 -5.27278 -0.34793 -0.489106 -6.48941 65.4384 -73.3442 -0.0891516 -1.75232e-006 -79.4954 73.7192 24.0555 -29.634 -0.0358655 23.3367 6.63841 68.3277 61.4171 12.5364 -4.01903e-005 -1.71292e-006 5.37794 3.64511 1.77897 12.0473 -5.29671 -11.6941 -8.91488 -2.11538 31.5578 -5.80871 4.60801 -15.3204 -5.19348 3.2694 -10.0672 13.8522 2.64594 27.7062 -2.30049 -3.99102 -13.0736 1.34766 
-2.2069 97.2738 -8.89739 2.12997 -3.72919 1.40623 -5.37755 -0.337756 -0.594915 -6.07095 65.2094 -74.1406 -0.0873536 -1.79927e-006 -79.2106 73.8946 23.9269 -30.2558 -0.00968943 23.3913 6.48827 68.324 61.4752 12.4015 -4.01922e-005 -1.71309e-006 5.31549 3.80594 1.71763 12.1333 -5.25659 -11.8119 -8.80683 -2.11866 31.7184 -5.97583 4.62759 -15.39 -5.22785 3.28955 -10.1935 13.6475 2.57593 27.8412 -2.12187 -4.02493 -13.0972 1.2985 
-2.27274 97.2615 -8.9214 2.12615 -3.69374 1.4276 -5.49234 -0.309545 -0.666116 -5.70821 65.0302 -74.8129 -0.0855358 -1.84255e-006 -78.9478 74.0571 23.9522 -30.5757 0.0077915 23.3532 6.37273 68.2409 61.4664 12.3882 -4.01932e-005 -1.71319e-006 5.28143 3.8702 1.7187 12.1567 -5.16799 -11.9055 -8.72427 -2.16994 31.7897 -6.01817 4.62204 -15.4157 -5.25909 3.3618 -10.2819 13.5359 2.48663 27.9086 -2.00902 -4.04632 -13.0931 1.29552 
-2.32784 97.2634 -8.93947 2.12008 -3.65248 1.40873 -5.60448 -0.269926 -0.699327 -5.41853 64.9087 -75.3029 -0.0836985 -1.87905e-006 -78.7261 74.0664 24.0826 -30.6188 0.00258431 23.2695 6.33695 68.088 61.4153 12.4915 -4.01934e-005 -1.7132e-006 5.27715 3.81634 1.78236 12.1167 -5.11203 -11.9691 -8.72473 -2.20211 31.7885 -5.9026 4.56406 -15.4134 -5.34064 3.43064 -10.3275 13.6294 2.4754 27.8908 -2.10867 -4.05204 -13.061 1.32384 
-2.36088 97.2747 -8.94812 2.13407 -3.61155 1.37701 -5.70269 -0.224723 -0.697977 -5.22712 64.8381 -75.5644 -0.0818419 -1.90751e-006 -78.553 73.8585 24.252 -30.5142 -0.0110383 23.1977 6.38285 67.8922 61.3514 12.6866 -4.01927e-005 -1.71314e-006 5.29934 3.65251 1.89784 12.0453 -5.13726 -12.0061 -8.82305 -2.18879 31.7538 -5.65683 4.46037 -15.41 -5.47618 3.44636 -10.3303 13.8949 2.56773 27.7965 -2.39436 -4.05151 -13.0081 1.35682 
-2.37864 97.2871 -8.94829 2.15614 -3.59333 1.3502 -5.77806 -0.175015 -0.670988 -5.15779 64.8003 -75.5784 -0.0799662 -1.92794e-006 -78.4287 73.4839 24.3968 -30.4308 0.00519409 23.1778 6.46268 67.687 61.2998 12.9413 -4.01915e-005 -1.71302e-006 5.34043 3.41093 2.04842 11.986 -5.20327 -12.0052 -8.99444 -2.16652 31.7135 -5.35352 4.34886 -15.4063 -5.61766 3.42492 -10.2971 14.147 2.68901 27.6859 -2.66781 -4.06029 -12.9583 1.37546 
-2.39904 97.2935 -8.94378 2.14191 -3.62454 1.33455 -5.82507 -0.117669 -0.630107 -5.2128 64.7764 -75.3744 -0.0780718 -1.94126e-006 -78.3477 73.089 24.4683 -30.5023 0.091747 23.215 6.49854 67.5008 61.2766 13.2236 -4.019e-005 -1.71288e-006 5.39089 3.13712 2.2125 11.9703 -5.20529 -11.9467 -9.17888 -2.19376 31.6686 -5.07921 4.26712 -15.4016 -5.7158 3.44515 -10.2379 14.1996 2.72935 27.6422 -2.72314 -4.08779 -12.9438 1.37135 
